<?xml version="1.0" standalone="no"?>
<!DOCTYPE svg PUBLIC "-//W3C//DTD SVG 20010904//EN"
 "http://www.w3.org/TR/2001/REC-SVG-20010904/DTD/svg10.dtd">
<svg version="1.0" xmlns="http://www.w3.org/2000/svg"
 width="512.000000pt" height="512.000000pt" viewBox="0 0 512.000000 512.000000"
 preserveAspectRatio="xMidYMid meet">
<metadata>
Created by potrace 1.14, written by Peter Selinger 2001-2017
</metadata>
<g transform="translate(0.000000,512.000000) scale(0.100000,-0.100000)"
fill="#000000" stroke="none">
<path d="M305 5106 c-118 -37 -208 -114 -262 -224 l-38 -76 -2 -841 c-3 -826
-2 -843 18 -902 51 -153 185 -263 340 -281 35 -4 417 -7 849 -6 769 1 786 2
850 23 138 44 240 160 276 311 3 14 7 387 8 830 2 716 0 812 -14 866 -42 158
-165 275 -319 304 -85 16 -1654 12 -1706 -4z"/>
<path d="M3067 5100 c-149 -47 -262 -179 -284 -330 -5 -30 -8 -415 -7 -855 1
-782 1 -801 22 -857 47 -132 146 -226 277 -264 55 -16 129 -18 860 -19 617 0
813 2 858 12 164 36 287 164 318 327 6 33 9 362 7 873 l-3 819 -37 75 c-46 93
-112 158 -206 202 l-67 32 -840 2 c-796 2 -843 1 -898 -17z"/>
<path d="M355 2338 c-117 -15 -238 -96 -298 -199 -59 -102 -57 -76 -55 -989
l3 -835 32 -67 c56 -119 154 -202 277 -234 41 -11 210 -14 856 -14 874 0 871
0 967 55 73 43 137 115 173 195 33 70 35 138 34 936 0 733 -2 804 -18 859 -43
148 -172 266 -316 291 -57 10 -1576 11 -1655 2z"/>
<path d="M3133 2338 c-154 -17 -293 -137 -339 -293 -16 -55 -18 -128 -19 -855
0 -437 3 -817 8 -845 27 -163 165 -305 326 -335 35 -6 348 -10 860 -9 777 1
808 1 865 21 137 46 235 151 272 293 17 65 21 1626 4 1702 -34 151 -149 271
-300 313 -34 10 -234 13 -830 14 -432 1 -813 -2 -847 -6z"/>
</g>
</svg>
